<?xml version="1.0" standalone="no"?>
<!DOCTYPE svg PUBLIC "-//W3C//DTD SVG 20010904//EN"
 "http://www.w3.org/TR/2001/REC-SVG-20010904/DTD/svg10.dtd">
<svg version="1.0" xmlns="http://www.w3.org/2000/svg"
 width="457.000000pt" height="136.000000pt" viewBox="0 0 457.000000 136.000000"
 preserveAspectRatio="xMidYMid meet">
<metadata>
Created by potrace 1.15, written by Peter Selinger 2001-2017
</metadata>
<g transform="translate(0.000000,136.000000) scale(0.100000,-0.100000)"
fill="#000000" stroke="none">
<path d="M1000 1253 c-202 -33 -382 -178 -455 -363 -108 -276 9 -596 264 -724
95 -48 151 -61 261 -61 153 0 275 47 375 143 l51 49 53 -48 c248 -222 651
-187 859 76 84 106 122 219 122 362 0 204 -92 373 -261 483 -93 60 -182 85
-304 85 -147 0 -266 -46 -378 -145 l-47 -42 -37 32 c-137 121 -335 181 -503
153z m1069 -58 c91 -24 161 -65 230 -134 199 -198 200 -497 4 -695 -145 -146
-355 -181 -541 -90 -90 44 -187 136 -177 168 3 12 11 44 19 71 9 35 20 54 37
62 38 19 59 52 59 92 -1 97 -57 261 -117 340 l-26 34 44 38 c56 49 142 95 210
113 70 19 190 20 258 1z m-929 -65 c95 -15 195 -68 262 -138 l56 -59 -21 -71
c-13 -43 -26 -72 -34 -72 -8 0 -25 -11 -38 -25 -20 -20 -25 -34 -25 -78 0
-104 46 -237 123 -350 10 -16 6 -24 -36 -62 -149 -136 -389 -164 -571 -67 -67
35 -177 145 -208 207 -101 198 -69 424 82 575 85 85 207 140 330 149 8 0 44
-4 80 -9z m392 -409 c15 -115 17 -121 43 -133 29 -13 31 -28 9 -93 l-17 -48
-18 36 c-27 53 -49 143 -49 205 0 43 -5 58 -25 77 -13 14 -28 25 -34 25 -10 0
4 61 22 95 9 18 13 15 35 -34 14 -30 29 -89 34 -130z"/>
<path d="M1838 829 c-22 -12 -23 -52 -3 -69 12 -10 15 -37 15 -126 0 -68 -4
-114 -10 -114 -16 0 -23 -49 -10 -65 18 -21 133 -21 154 1 21 20 20 30 -4 54
-12 12 -20 33 -20 55 0 35 0 35 45 35 l45 0 0 -39 c0 -25 -5 -41 -15 -45 -22
-8 -19 -53 4 -66 25 -13 107 -13 132 0 20 11 26 54 9 65 -6 4 -10 57 -10 125
0 68 4 121 10 125 14 9 13 48 -2 63 -15 15 -112 16 -139 2 -23 -13 -26 -58 -4
-66 9 -4 15 -19 15 -40 0 -34 -1 -34 -45 -34 -43 0 -45 1 -45 29 0 16 7 34 15
41 21 18 19 57 -4 70 -25 13 -111 13 -133 -1z"/>
<path d="M944 831 c-79 -36 -99 -121 -44 -185 17 -18 43 -37 58 -40 93 -23
102 -27 102 -46 0 -41 -82 -31 -119 14 -16 19 -52 21 -69 4 -31 -31 -5 -89 58
-127 42 -25 136 -29 179 -6 93 48 109 160 31 222 -8 7 -42 21 -75 32 -35 11
-60 24 -60 32 0 25 41 21 73 -6 21 -18 41 -25 59 -23 26 3 28 7 31 49 5 72
-16 90 -109 94 -56 3 -85 -1 -115 -14z"/>
<path d="M2670 1043 c-73 -27 -66 -113 11 -133 30 -8 38 -15 31 -22 -8 -8 -18
-6 -36 6 -44 28 -74 16 -61 -24 8 -25 55 -50 93 -50 16 0 41 9 56 21 l26 20
26 -20 c31 -25 71 -27 101 -6 19 13 22 13 27 -1 4 -11 17 -14 43 -12 l38 3 -3
46 c-3 43 -1 47 23 51 22 5 25 2 25 -24 0 -47 39 -78 97 -76 26 1 53 5 60 10
6 5 14 5 17 -1 4 -6 48 -10 102 -9 84 0 96 3 109 21 20 28 19 87 -1 115 -15
21 -20 22 -185 20 -94 -1 -172 -5 -175 -10 -3 -4 -15 -1 -27 6 -23 16 -104 13
-120 -3 -5 -5 -21 -2 -38 6 -36 18 -93 3 -110 -28 -8 -17 -13 -18 -25 -8 -10
8 -12 15 -4 23 14 14 13 66 -2 71 -28 8 -84 13 -98 8z"/>
<path d="M2645 787 c-11 -6 -26 -16 -33 -23 -12 -13 -12 -48 1 -60 11 -11 8
-190 -3 -220 -9 -24 -7 -31 13 -51 26 -27 104 -41 134 -25 13 7 26 6 43 -3 28
-15 80 -2 80 21 0 8 5 14 10 14 6 0 10 7 10 15 0 19 16 20 23 0 10 -23 85 -57
125 -54 21 1 51 10 67 19 28 15 31 15 49 -2 22 -20 85 -24 117 -8 20 11 26 1
9 -16 -15 -15 4 -59 32 -78 29 -18 116 -15 129 5 12 19 11 56 -1 64 -21 13 -9
24 22 20 36 -5 64 8 95 43 l22 25 35 -31 c52 -46 120 -53 189 -21 23 11 30 11
36 0 12 -19 97 -26 127 -11 27 15 32 54 10 83 -9 12 -11 28 -7 45 6 22 14 28
42 30 39 4 49 15 49 58 0 54 -33 73 -120 72 -75 -1 -106 -10 -125 -35 -9 -11
-14 -10 -33 7 -49 46 -157 34 -196 -21 l-15 -22 -43 37 -42 37 -94 -4 c-68 -2
-96 -7 -102 -17 -7 -11 -10 -7 -11 18 -2 46 -2 47 -23 75 -23 30 -67 32 -110
4 -26 -18 -36 -60 -16 -72 6 -3 10 -23 10 -43 l0 -36 -32 31 c-58 55 -144 56
-200 1 l-30 -29 -27 23 c-14 13 -27 26 -29 31 -2 4 -12 7 -22 7 -35 0 -50 12
-50 39 0 47 -70 83 -115 58z m56 -29 c1 -7 2 -27 3 -45 1 -40 7 -45 58 -50 59
-6 76 -18 87 -61 12 -46 9 -77 -8 -119 -16 -39 -55 -48 -46 -10 16 65 9 133
-14 138 -30 7 -53 4 -62 -8 -16 -19 -15 -103 1 -113 23 -14 3 -40 -32 -40 -46
0 -64 13 -43 30 22 18 22 222 -1 241 -14 11 -13 15 8 31 27 21 48 23 49 6z
m530 -6 c0 -9 1 -72 2 -140 2 -97 5 -125 17 -132 13 -9 13 -11 0 -20 -20 -13
-77 -13 -85 0 -4 6 -1 18 7 27 19 23 20 212 1 231 -12 12 -12 17 1 31 21 23
56 24 57 3z m269 -97 c68 -45 62 -153 -11 -191 -18 -9 -41 -13 -55 -10 -35 9
-54 -35 -30 -73 11 -17 -10 -31 -45 -31 -32 0 -58 25 -34 34 22 8 21 189 -1
231 -14 27 -14 30 2 42 11 8 31 11 50 7 18 -3 40 -2 50 4 18 10 48 5 74 -13z
m-447 6 c35 -13 57 -39 57 -66 0 -36 -26 -55 -75 -55 -47 0 -59 -8 -45 -29 9
-15 52 -18 88 -6 32 11 30 -20 -3 -41 -31 -20 -97 -14 -125 11 -52 47 -45 140
14 176 35 21 53 23 89 10z m702 -5 c19 -8 35 -19 36 -23 0 -4 2 -19 5 -32 7
-37 -22 -61 -72 -61 -46 0 -58 -8 -44 -30 8 -12 38 -15 84 -8 33 5 29 -21 -7
-38 -50 -24 -100 -12 -132 30 -29 38 -32 74 -10 116 16 31 57 59 88 60 10 0
33 -7 52 -14z m263 -12 c3 -18 -4 -22 -38 -28 -28 -4 -43 -13 -48 -27 -11 -30
-7 -86 7 -103 19 -23 4 -36 -39 -36 -44 0 -58 13 -36 35 17 18 17 118 -1 136
-8 8 -9 16 -1 28 8 13 26 17 82 16 65 0 71 -2 74 -21z"/>
</g>
</svg>
