<?xml version="1.0" encoding="utf-8"?>
<!-- Generator: Adobe Illustrator 19.2.1, SVG Export Plug-In . SVG Version: 6.00 Build 0)  -->
<svg version="1.1" id="Layer_1" xmlns="http://www.w3.org/2000/svg" xmlns:xlink="http://www.w3.org/1999/xlink" x="0px" y="0px"
	 viewBox="0 0 522.9 451.1" style="enable-background:new 0 0 522.9 451.1;" xml:space="preserve">
<style type="text/css">
	.st0{fill:#FFFFFF;}
</style>
<g>
	<g>
		<path class="st0" d="M31.9,450.5c-8.4,2.4-18.1-4-22.6-8.1c-4.5-4.1-8.1-11.2-8.8-14.5s-0.7-10,0-13.1c0.7-3.1,1.1-4.7,1.5-7.1
			c1.4-8.7,59.7-355,62.8-370.1c1.5-7.4,2.8-12.6,7.1-21.5C76.1,7.1,87.5,1.8,91.6,0.8s8.9-1.1,11.7,0s6.9,2.5,9.8,4.5
			c11.5,7.8,382.6,263.7,396.7,273.6c2.2,1.6,6.2,5.1,7.8,7.6s4,6.9,4.8,11c0.8,4.1,0.6,7.1-0.7,12.4s-8.9,17.7-19.5,20.4
			c-20.1,5.1-436,111.4-448.4,114.5C46.5,446.6,39.2,448.6,31.9,450.5z M233.4,157.5c-14.3,0.7-25.5,7.8-33.8,19
			c-10.3,14-119.7,179.2-128.2,192.7c-3.7,5.9-7,12.2-9.3,18.7c-2.3,6.7,3.2,13.7,11,12.8c6.5-0.7,13.1-2.6,19.3-5
			c20-7.7,243.7-94.5,263.2-102.1c10.6-4.1,21.6-7.6,31-14.3c7.3-5.2,11.4-14.5,2.3-21.5c-4.4-3.4-9-6.7-13.5-9.9
			c-20.9-14.6-98.5-68.3-116.3-80.6C251.5,161.9,243.3,157.8,233.4,157.5z M51.3,342.7c0.3,0,0.5,0.1,0.8,0.1c0.6-1,1.1-2.1,1.6-3.1
			c6.4-13,12.7-26.1,19.2-39.1c8-16.1,64-129,71.7-144c6.8-13.4,11.1-27.3,9.8-42.6c-0.7-8.3-2.6-16-7.7-22.7
			c-6.7-8.8-18-11.2-26.9-4.9c-5.7,4.1-9.4,9.7-11.3,16.1C104.7,114.9,59,306.7,54.8,326C53.5,331.6,52.5,337.2,51.3,342.7z"/>
	</g>
</g>
</svg>
